<svg width="36" height="36" viewBox="0 0 36 36" fill="none" xmlns="http://www.w3.org/2000/svg">
<rect width="36" height="36" rx="18" fill="#F4F2E4"/>
<mask id="mask0_260_20" style="mask-type:alpha" maskUnits="userSpaceOnUse" x="6" y="6" width="24" height="24">
<rect x="6" y="6" width="24" height="24" fill="#D9D9D9"/>
</mask>
<g mask="url(#mask0_260_20)">
<path d="M18 23.5C19.25 23.5 20.3125 23.0625 21.1875 22.1875C22.0625 21.3125 22.5 20.25 22.5 19C22.5 17.75 22.0625 16.6875 21.1875 15.8125C20.3125 14.9375 19.25 14.5 18 14.5C16.75 14.5 15.6875 14.9375 14.8125 15.8125C13.9375 16.6875 13.5 17.75 13.5 19C13.5 20.25 13.9375 21.3125 14.8125 22.1875C15.6875 23.0625 16.75 23.5 18 23.5ZM18 21.5C17.3 21.5 16.7083 21.2583 16.225 20.775C15.7417 20.2917 15.5 19.7 15.5 19C15.5 18.3 15.7417 17.7083 16.225 17.225C16.7083 16.7417 17.3 16.5 18 16.5C18.7 16.5 19.2917 16.7417 19.775 17.225C20.2583 17.7083 20.5 18.3 20.5 19C20.5 19.7 20.2583 20.2917 19.775 20.775C19.2917 21.2583 18.7 21.5 18 21.5ZM10 27C9.45 27 8.97917 26.8042 8.5875 26.4125C8.19583 26.0208 8 25.55 8 25V13C8 12.45 8.19583 11.9792 8.5875 11.5875C8.97917 11.1958 9.45 11 10 11H13.15L15 9H21L22.85 11H26C26.55 11 27.0208 11.1958 27.4125 11.5875C27.8042 11.9792 28 12.45 28 13V25C28 25.55 27.8042 26.0208 27.4125 26.4125C27.0208 26.8042 26.55 27 26 27H10ZM10 25H26V13H21.95L20.125 11H15.875L14.05 13H10V25Z" fill="#402011"/>
</g>
</svg>
