<svg width="96" height="94" viewBox="0 0 96 94" fill="none" xmlns="http://www.w3.org/2000/svg">
<circle cx="49" cy="47" r="40" fill="#F4F2E4"/>
<circle cx="49" cy="47" r="45" stroke="#F4F2E4" stroke-width="4"/>
<mask id="mask0_315_15" style="mask-type:alpha" maskUnits="userSpaceOnUse" x="14" y="12" width="69" height="69">
<rect x="14" y="12" width="69" height="69" fill="#D9D9D9"/>
</mask>
<g mask="url(#mask0_315_15)">
<path d="M71.7875 60.7313C72.6021 61.1625 73.3208 61.0667 73.9438 60.4438C74.5667 59.8208 74.6625 59.1021 74.2313 58.2875L70.0625 50.525L67.0438 58.2875L71.7875 60.7313ZM57.4125 58H60.8625L67.7625 40.8938C67.9063 40.5104 67.8703 40.187 67.6547 39.9234C67.4391 39.6599 67.1875 39.4563 66.9 39.3125L61.15 37.0125C60.7188 36.8688 60.2995 36.9167 59.8922 37.1562C59.4849 37.3958 59.2333 37.7312 59.1375 38.1625L57.4125 58ZM36.1375 58H39.5875L37.8625 38.1625C37.7667 37.6354 37.5151 37.276 37.1078 37.0844C36.7005 36.8927 36.2812 36.8688 35.85 37.0125L30.1 39.3125C29.7167 39.4563 29.4411 39.6599 29.2734 39.9234C29.1057 40.187 29.0938 40.5104 29.2375 40.8938L36.1375 58ZM25.2125 60.7313L29.9563 58.2875L26.9375 50.525L22.7687 58.2875C22.3375 59.1021 22.4333 59.8208 23.0563 60.4438C23.6792 61.0667 24.3979 61.1625 25.2125 60.7313ZM45.3375 58H51.6625L53.8188 33.7062C53.9146 33.275 53.8068 32.9036 53.4953 32.5922C53.1839 32.2807 52.8125 32.125 52.3813 32.125H44.6188C44.2354 32.125 43.888 32.2807 43.5766 32.5922C43.2651 32.9036 43.1333 33.275 43.1813 33.7062L45.3375 58ZM23.9188 66.625C21.9062 66.625 20.2292 65.8703 18.8875 64.3609C17.5458 62.8516 16.875 61.0667 16.875 59.0063C16.875 58.4313 16.9589 57.8682 17.1266 57.3172C17.2943 56.7661 17.4979 56.2271 17.7375 55.7L24.0625 43.625C23.3917 41.7083 23.4156 39.8156 24.1344 37.9469C24.8531 36.0781 26.1229 34.7604 27.9438 33.9938L33.6938 31.6937C34.3646 31.4542 35.0354 31.2865 35.7063 31.1906C36.3771 31.0948 37.0479 31.1188 37.7188 31.2625C38.3896 29.8729 39.324 28.7109 40.5219 27.7766C41.7198 26.8422 43.0854 26.375 44.6188 26.375H52.3813C53.9146 26.375 55.2802 26.8422 56.4781 27.7766C57.676 28.7109 58.6104 29.8729 59.2812 31.2625C59.9521 31.1667 60.6229 31.1547 61.2938 31.2266C61.9646 31.2984 62.6354 31.4542 63.3062 31.6937L69.0562 33.9938C70.9729 34.7604 72.3146 36.0781 73.0813 37.9469C73.8479 39.8156 73.8 41.6604 72.9375 43.4813L79.2625 55.5563C79.55 56.0833 79.7656 56.6344 79.9094 57.2094C80.0531 57.7844 80.125 58.3833 80.125 59.0063C80.125 61.1625 79.3943 62.9714 77.9328 64.4328C76.4714 65.8943 74.6625 66.625 72.5063 66.625C71.9792 66.625 71.4521 66.5651 70.925 66.4453C70.3979 66.3255 69.8708 66.1458 69.3438 65.9062L64.8875 63.75H31.9688L27.9438 65.9062C27.3208 66.2417 26.662 66.4453 25.9672 66.5172C25.2724 66.5891 24.5896 66.625 23.9188 66.625Z" fill="#402011"/>
</g>
</svg>
