<svg width="170" height="170" viewBox="0 0 170 170" fill="none" xmlns="http://www.w3.org/2000/svg">
<circle cx="85" cy="85" r="85" fill="#F4F2E4"/>
<path d="M109 57C109 70.2548 98.2548 81 85 81C71.7452 81 61 70.2548 61 57C61 43.7452 71.7452 33 85 33C98.2548 33 109 43.7452 109 57Z" fill="#605B58"/>
<path d="M57 134V107.5C57.5143 100.735 58.2497 97.075 61 91C63.9317 85.1633 66.1846 82.3008 71.5 78C77.1351 81.2448 80.1919 82.0317 85.5 82C90.9932 81.6571 93.9284 80.2951 99 78C103.86 82.359 106.02 85.6074 109 91C111.27 97.2996 112.097 100.924 113 107.5V134.5L111.5 136H58.5L57 134Z" fill="#605B58"/>
</svg>
