<svg width="24" height="24" viewBox="0 0 24 24" fill="none" xmlns="http://www.w3.org/2000/svg">
<mask id="mask0_53_48" style="mask-type:alpha" maskUnits="userSpaceOnUse" x="0" y="0" width="24" height="24">
<rect width="24" height="24" fill="#D9D9D9"/>
</mask>
<g mask="url(#mask0_53_48)">
<path d="M4.17497 21C3.82497 21.0834 3.5208 20.9959 3.26247 20.7375C3.00414 20.4792 2.91664 20.175 2.99997 19.825L3.99997 15.05L8.94997 20L4.17497 21ZM8.94997 20L3.99997 15.05L15.45 3.60002C15.8333 3.21669 16.3083 3.02502 16.875 3.02502C17.4416 3.02502 17.9166 3.21669 18.3 3.60002L20.4 5.70002C20.7833 6.08336 20.975 6.55836 20.975 7.12502C20.975 7.69169 20.7833 8.16669 20.4 8.55002L8.94997 20ZM16.875 5.00002L6.52497 15.35L8.64997 17.475L19 7.12502L16.875 5.00002Z" fill="#F4F2E4"/>
</g>
</svg>
