<svg width="319" height="229" viewBox="0 0 319 229" fill="none" xmlns="http://www.w3.org/2000/svg">
<path d="M63.8 229C55.0275 229 47.5177 226.778 41.2706 222.334C35.0235 217.889 31.9 212.547 31.9 206.306L31.9 84.5348C22.0642 80.3742 14.2885 74.8426 8.57312 67.9398C2.85771 61.0371 0 53.5198 0 45.3878C0 32.9062 6.24708 22.2211 18.7413 13.3327C31.2354 4.44422 46.255 0 63.8 0L255.2 0C272.745 0 287.765 4.44422 300.259 13.3327C312.753 22.2211 319 32.9062 319 45.3878C319 53.5198 316.142 61.0371 310.427 67.9398C304.711 74.8426 296.936 80.3742 287.1 84.5348V206.306C287.1 212.547 283.977 217.889 277.729 222.334C271.482 226.778 263.973 229 255.2 229L63.8 229Z" fill="#1C1B1F"/>
</svg>
