<svg width="50" height="50" viewBox="0 0 50 50" fill="none" xmlns="http://www.w3.org/2000/svg">
<circle cx="25" cy="25" r="25" fill="#605B58"/>
<path d="M12.09 33.12C12.1833 33.1867 12.2567 33.2567 12.31 33.33C12.37 33.3967 12.4 33.46 12.4 33.52C12.4 33.5667 12.3767 33.61 12.33 33.65L12.15 33.78C12.0833 33.8267 12.02 33.85 11.96 33.85C11.9 33.85 11.85 33.83 11.81 33.79C11.6367 33.6433 11.49 33.5467 11.37 33.5C11.25 33.4467 11.1267 33.42 11 33.42C10.78 33.42 10.5667 33.5233 10.36 33.73C10.16 33.9367 9.99667 34.21 9.87 34.55C9.74333 34.89 9.68 35.26 9.68 35.66V37.67C9.68 37.89 9.57 38 9.35 38H8.84C8.74667 38 8.66667 37.9667 8.6 37.9C8.53333 37.8333 8.5 37.7533 8.5 37.66V33.23C8.5 33.01 8.61 32.9 8.83 32.9H9.35C9.57 32.9 9.68 33 9.68 33.2C9.86667 33.08 10.07 32.9867 10.29 32.92C10.51 32.8533 10.7467 32.82 11 32.82C11.2067 32.82 11.4033 32.8433 11.59 32.89C11.7767 32.93 11.9433 33.0067 12.09 33.12ZM14.4688 38.1C14.0421 38.1 13.6788 37.99 13.3788 37.77C13.0854 37.5433 12.8588 37.2333 12.6988 36.84C12.5454 36.4467 12.4688 35.9967 12.4688 35.49C12.4688 34.99 12.5588 34.5367 12.7388 34.13C12.9254 33.7233 13.1821 33.4 13.5088 33.16C13.8354 32.92 14.2188 32.8 14.6588 32.8C15.2321 32.8 15.7088 32.9233 16.0888 33.17C16.4688 33.41 16.7521 33.7233 16.9388 34.11C17.1254 34.4967 17.2188 34.9067 17.2188 35.34C17.2188 35.3667 17.2188 35.3933 17.2188 35.42C17.2654 35.8667 17.3188 36.2733 17.3788 36.64C17.4388 37 17.4988 37.3 17.5588 37.54C17.5654 37.56 17.5688 37.5867 17.5688 37.62C17.5688 37.82 17.4654 37.9367 17.2588 37.97L16.6888 38.04C16.5021 38.06 16.3854 37.9833 16.3388 37.81C16.3121 37.7033 16.2888 37.5933 16.2688 37.48C16.0421 37.6733 15.7788 37.8267 15.4788 37.94C15.1788 38.0467 14.8421 38.1 14.4688 38.1ZM14.4688 37.5C14.7954 37.5 15.0654 37.3933 15.2788 37.18C15.4921 36.96 15.6521 36.6833 15.7588 36.35C15.8721 36.0167 15.9288 35.6733 15.9288 35.32C15.9288 35.3133 15.9288 35.3 15.9288 35.28C15.9221 35.2467 15.9188 35.21 15.9188 35.17C15.9188 35.1367 15.9188 35.1067 15.9188 35.08C15.8988 34.7867 15.8388 34.5133 15.7388 34.26C15.6388 34 15.4988 33.7933 15.3188 33.64C15.1388 33.48 14.9188 33.4 14.6588 33.4C14.5188 33.4 14.3788 33.5033 14.2388 33.71C14.0988 33.91 13.9821 34.17 13.8888 34.49C13.7954 34.81 13.7488 35.1433 13.7488 35.49C13.7488 35.8367 13.7854 36.1633 13.8588 36.47C13.9321 36.7767 14.0254 37.0267 14.1388 37.22C14.2521 37.4067 14.3621 37.5 14.4688 37.5ZM22.9156 37.64C22.9156 37.7467 22.8823 37.8333 22.8156 37.9C22.749 37.9667 22.669 38 22.5756 38H22.0156C21.9223 38 21.8423 37.9667 21.7756 37.9C21.709 37.8267 21.6756 37.7367 21.6756 37.63C21.6756 37.1367 21.6756 36.7567 21.6756 36.49C21.6756 36.2167 21.6723 36.01 21.6656 35.87C21.6656 35.7233 21.6656 35.6 21.6656 35.5C21.6656 34.8333 21.5923 34.3167 21.4456 33.95C21.3056 33.5833 21.0723 33.4 20.7456 33.4C20.3323 33.4 20.029 33.49 19.8356 33.67C19.6423 33.8433 19.5456 34.1267 19.5456 34.52V37.66C19.5456 37.7533 19.5123 37.8333 19.4456 37.9C19.379 37.9667 19.299 38 19.2056 38H18.6056C18.5123 38 18.4323 37.9667 18.3656 37.9C18.299 37.8333 18.2656 37.7533 18.2656 37.66V33.14C18.2656 33.0467 18.299 32.9667 18.3656 32.9C18.4323 32.8333 18.5123 32.8 18.6056 32.8H19.2056C19.3523 32.8 19.4556 32.8633 19.5156 32.99C19.8823 32.8633 20.2923 32.8 20.7456 32.8C21.219 32.8 21.5956 32.8733 21.8756 33.02C22.1556 33.1667 22.369 33.37 22.5156 33.63C22.6623 33.8833 22.7623 34.1733 22.8156 34.5C22.869 34.8267 22.899 35.17 22.9056 35.53C22.9123 35.63 22.9156 35.7533 22.9156 35.9C22.9156 36.04 22.9156 36.2433 22.9156 36.51C22.9156 36.7767 22.9156 37.1533 22.9156 37.64ZM25.1934 37.66C25.1934 37.7533 25.1601 37.8333 25.0934 37.9C25.0268 37.9667 24.9468 38 24.8534 38H24.3134C24.2201 38 24.1401 37.9667 24.0734 37.9C24.0068 37.8333 23.9734 37.7533 23.9734 37.66V30.74C23.9734 30.6467 24.0068 30.5667 24.0734 30.5C24.1401 30.4333 24.2201 30.4 24.3134 30.4H24.8534C24.9468 30.4 25.0268 30.4333 25.0934 30.5C25.1601 30.5667 25.1934 30.6467 25.1934 30.74V35L27.7534 32.93C27.8068 32.8833 27.8701 32.86 27.9434 32.86C27.9968 32.86 28.0468 32.8733 28.0934 32.9L28.2334 32.98C28.3734 33.06 28.4434 33.17 28.4434 33.31C28.4434 33.4233 28.3901 33.5233 28.2834 33.61L26.0734 35.4L28.2534 37.28C28.3668 37.3733 28.4234 37.48 28.4234 37.6C28.4234 37.72 28.3668 37.81 28.2534 37.87L28.0134 38C27.9734 38.02 27.9268 38.03 27.8734 38.03C27.7934 38.03 27.7268 38.0067 27.6734 37.96L25.4134 36.01C25.3934 35.9967 25.3768 35.98 25.3634 35.96L25.1934 36.1V37.66ZM30.473 31.63C30.473 31.7233 30.4396 31.8033 30.373 31.87C30.3063 31.9367 30.2263 31.97 30.133 31.97H29.533C29.4396 31.97 29.3596 31.9367 29.293 31.87C29.2263 31.8033 29.193 31.7233 29.193 31.63V31.04C29.193 30.9467 29.2263 30.8667 29.293 30.8C29.3596 30.7333 29.4396 30.7 29.533 30.7H30.133C30.2263 30.7 30.3063 30.7333 30.373 30.8C30.4396 30.8667 30.473 30.9467 30.473 31.04V31.63ZM30.473 37.66C30.473 37.7533 30.4396 37.8333 30.373 37.9C30.3063 37.9667 30.2263 38 30.133 38H29.533C29.4396 38 29.3596 37.9667 29.293 37.9C29.2263 37.8333 29.193 37.7533 29.193 37.66V33.24C29.193 33.1467 29.2263 33.0667 29.293 33C29.3596 32.9333 29.4396 32.9 29.533 32.9H30.133C30.2263 32.9 30.3063 32.9333 30.373 33C30.4396 33.0667 30.473 33.1467 30.473 33.24V37.66ZM36.3727 37.64C36.3727 37.7467 36.3393 37.8333 36.2727 37.9C36.206 37.9667 36.126 38 36.0327 38H35.4727C35.3793 38 35.2993 37.9667 35.2327 37.9C35.166 37.8267 35.1327 37.7367 35.1327 37.63C35.1327 37.1367 35.1327 36.7567 35.1327 36.49C35.1327 36.2167 35.1293 36.01 35.1227 35.87C35.1227 35.7233 35.1227 35.6 35.1227 35.5C35.1227 34.8333 35.0493 34.3167 34.9027 33.95C34.7627 33.5833 34.5293 33.4 34.2027 33.4C33.7893 33.4 33.486 33.49 33.2927 33.67C33.0993 33.8433 33.0027 34.1267 33.0027 34.52V37.66C33.0027 37.7533 32.9693 37.8333 32.9027 37.9C32.836 37.9667 32.756 38 32.6627 38H32.0627C31.9693 38 31.8893 37.9667 31.8227 37.9C31.756 37.8333 31.7227 37.7533 31.7227 37.66V33.14C31.7227 33.0467 31.756 32.9667 31.8227 32.9C31.8893 32.8333 31.9693 32.8 32.0627 32.8H32.6627C32.8093 32.8 32.9127 32.8633 32.9727 32.99C33.3393 32.8633 33.7493 32.8 34.2027 32.8C34.676 32.8 35.0527 32.8733 35.3327 33.02C35.6127 33.1667 35.826 33.37 35.9727 33.63C36.1193 33.8833 36.2193 34.1733 36.2727 34.5C36.326 34.8267 36.356 35.17 36.3627 35.53C36.3693 35.63 36.3727 35.7533 36.3727 35.9C36.3727 36.04 36.3727 36.2433 36.3727 36.51C36.3727 36.7767 36.3727 37.1533 36.3727 37.64ZM37.6742 39.24C37.6009 39.1667 37.5642 39.0867 37.5642 39C37.5642 38.8267 37.6642 38.7067 37.8642 38.64L38.1842 38.54C38.2042 38.5333 38.2309 38.53 38.2642 38.53C38.3776 38.53 38.4676 38.58 38.5342 38.68C38.7076 38.9333 38.8509 39.1 38.9642 39.18C39.0842 39.26 39.2376 39.3 39.4242 39.3C39.7842 39.3 40.0642 39.22 40.2642 39.06C40.4709 38.9067 40.5742 38.6667 40.5742 38.34V37.64C40.4009 37.7867 40.2042 37.9 39.9842 37.98C39.7709 38.06 39.5309 38.1 39.2642 38.1C38.7909 38.1 38.3742 37.9833 38.0142 37.75C37.6542 37.51 37.3742 37.1867 37.1742 36.78C36.9742 36.3667 36.8742 35.9033 36.8742 35.39C36.8742 34.8833 36.9642 34.4367 37.1442 34.05C37.3242 33.6633 37.5809 33.36 37.9142 33.14C38.2542 32.9133 38.6609 32.8 39.1342 32.8C39.4342 32.8 39.7042 32.8367 39.9442 32.91C40.1842 32.9833 40.3942 33.0867 40.5742 33.22C40.5809 33.1267 40.6142 33.05 40.6742 32.99C40.7342 32.93 40.8142 32.9 40.9142 32.9H41.4142C41.5076 32.9 41.5876 32.9333 41.6542 33C41.7209 33.0667 41.7542 33.1467 41.7542 33.24V38.34C41.7542 38.6467 41.6509 38.9167 41.4442 39.15C41.2442 39.3833 40.9676 39.5667 40.6142 39.7C40.2609 39.8333 39.8642 39.9 39.4242 39.9C38.7109 39.9 38.1276 39.68 37.6742 39.24ZM39.2642 37.49C39.4709 37.49 39.6742 37.42 39.8742 37.28C40.0742 37.14 40.2376 36.92 40.3642 36.62C40.4976 36.3133 40.5642 35.9233 40.5642 35.45C40.5642 34.7233 40.4409 34.2033 40.1942 33.89C39.9476 33.57 39.5942 33.41 39.1342 33.41C38.9676 33.41 38.8009 33.4833 38.6342 33.63C38.4676 33.77 38.3276 33.9867 38.2142 34.28C38.1076 34.5733 38.0542 34.9433 38.0542 35.39C38.0542 35.79 38.0942 36.15 38.1742 36.47C38.2609 36.7833 38.3909 37.0333 38.5642 37.22C38.7442 37.4 38.9776 37.49 39.2642 37.49Z" fill="#F4F4E4"/>
<path d="M25.5 9L27.5066 15.1115H34L28.7467 18.8885L30.7533 25L25.5 21.2229L20.2467 25L22.2533 18.8885L17 15.1115H23.4934L25.5 9Z" fill="#F4F4E4"/>
</svg>
