<svg width="90" height="90" viewBox="0 0 90 90" fill="none" xmlns="http://www.w3.org/2000/svg">
<mask id="mask0_96_10" style="mask-type:alpha" maskUnits="userSpaceOnUse" x="0" y="0" width="90" height="90">
<rect width="89.5032" height="89.5032" fill="#D9D9D9"/>
</mask>
<g mask="url(#mask0_96_10)">
<path d="M28.4359 23.8675L38.878 10.3488C39.6238 9.35435 40.5095 8.62402 41.5351 8.15786C42.5606 7.6917 43.6328 7.45862 44.7516 7.45862C45.8704 7.45862 46.9426 7.6917 47.9681 8.15786C48.9937 8.62402 49.8794 9.35435 50.6253 10.3488L61.0673 23.8675L76.9168 29.1818C78.5328 29.679 79.807 30.5958 80.7393 31.9321C81.6717 33.2685 82.1378 34.7447 82.1378 36.3607C82.1378 37.1065 82.0291 37.8524 81.8115 38.5983C81.594 39.3441 81.2366 40.0589 80.7393 40.7426L70.4838 55.2869L70.8567 70.577C70.9189 72.7524 70.2041 74.586 68.7124 76.0777C67.2206 77.5694 65.4803 78.3153 63.4913 78.3153C63.367 78.3153 62.6833 78.2221 61.4402 78.0356L44.7516 73.374L28.063 78.0356C27.7522 78.1599 27.4104 78.2376 27.0374 78.2687C26.6645 78.2998 26.3227 78.3153 26.0119 78.3153C24.0229 78.3153 22.2826 77.5694 20.7909 76.0777C19.2991 74.586 18.5844 72.7524 18.6465 70.577L19.0194 55.1936L8.85711 40.7426C8.35987 40.0589 8.00247 39.3441 7.78493 38.5983C7.56739 37.8524 7.45862 37.1065 7.45862 36.3607C7.45862 34.8068 7.90924 33.3617 8.81049 32.0254C9.71174 30.689 10.9704 29.7412 12.5864 29.1818L28.4359 23.8675ZM33.0043 30.3006L14.9172 36.2675L26.478 52.9561L26.1051 70.7635L44.7516 65.6357L63.3981 70.8567L63.0252 52.9561L74.586 36.4539L56.4989 30.3006L44.7516 14.9172L33.0043 30.3006Z" fill="#F4F2E4"/>
</g>
</svg>
