<svg width="51" height="53" viewBox="0 0 51 53" fill="none" xmlns="http://www.w3.org/2000/svg">
<ellipse cx="25.9674" cy="26.4999" rx="19.5652" ry="20.9302" fill="#F4F2E4"/>
<path d="M25.9674 51C38.8128 51 49 39.9018 49 26.5C49 13.0982 38.8128 2 25.9674 2C13.1219 2 2.93475 13.0982 2.93475 26.5C2.93475 39.9018 13.1219 51 25.9674 51Z" stroke="#F4F2E4" stroke-width="4"/>
<mask id="mask0_381_22" style="mask-type:alpha" maskUnits="userSpaceOnUse" x="8" y="8" width="35" height="37">
<rect x="8.84784" y="8.18616" width="33.75" height="36.1046" fill="#D9D9D9"/>
</mask>
<g mask="url(#mask0_381_22)">
<path d="M37.1135 33.6849C37.5119 33.9105 37.8635 33.8604 38.1682 33.5344C38.4728 33.2085 38.5197 32.8324 38.3088 32.4062L36.2697 28.3444L34.7932 32.4062L37.1135 33.6849ZM30.0822 32.2557H31.7697L35.1447 23.3048C35.215 23.1042 35.1974 22.935 35.092 22.7971C34.9865 22.6592 34.8635 22.5526 34.7228 22.4774L31.9103 21.2739C31.6994 21.1987 31.4943 21.2238 31.2951 21.3491C31.0959 21.4745 30.9728 21.65 30.926 21.8756L30.0822 32.2557ZM19.676 32.2557H21.3635L20.5197 21.8756C20.4728 21.5998 20.3498 21.4118 20.1506 21.3115C19.9514 21.2112 19.7463 21.1987 19.5353 21.2739L16.7228 22.4774C16.5353 22.5526 16.4006 22.6592 16.3185 22.7971C16.2365 22.935 16.2307 23.1042 16.301 23.3048L19.676 32.2557ZM14.3322 33.6849L16.6525 32.4062L15.176 28.3444L13.1369 32.4062C12.926 32.8324 12.9728 33.2085 13.2775 33.5344C13.5822 33.8604 13.9338 33.9105 14.3322 33.6849ZM24.176 32.2557H27.2697L28.3244 19.5439C28.3713 19.3182 28.3185 19.1239 28.1662 18.9609C28.0139 18.798 27.8322 18.7165 27.6213 18.7165H23.8244C23.6369 18.7165 23.467 18.798 23.3146 18.9609C23.1623 19.1239 23.0978 19.3182 23.1213 19.5439L24.176 32.2557ZM13.6994 36.7688C12.715 36.7688 11.8947 36.3739 11.2385 35.5841C10.5822 34.7943 10.2541 33.8604 10.2541 32.7823C10.2541 32.4814 10.2951 32.1868 10.3771 31.8984C10.4592 31.6101 10.5588 31.328 10.676 31.0522L13.7697 24.7339C13.4416 23.731 13.4533 22.7406 13.8049 21.7628C14.1564 20.785 14.7775 20.0955 15.6682 19.6943L18.4807 18.4908C18.8088 18.3655 19.1369 18.2777 19.465 18.2276C19.7932 18.1774 20.1213 18.19 20.4494 18.2652C20.7775 17.5381 21.2346 16.9301 21.8205 16.4411C22.4064 15.9522 23.0744 15.7078 23.8244 15.7078H27.6213C28.3713 15.7078 29.0392 15.9522 29.6252 16.4411C30.2111 16.9301 30.6682 17.5381 30.9963 18.2652C31.3244 18.215 31.6525 18.2088 31.9807 18.2464C32.3088 18.284 32.6369 18.3655 32.965 18.4908L35.7775 19.6943C36.715 20.0955 37.3713 20.785 37.7463 21.7628C38.1213 22.7406 38.0978 23.7059 37.676 24.6587L40.7697 30.977C40.9103 31.2528 41.0158 31.5412 41.0861 31.842C41.1564 32.1429 41.1916 32.4563 41.1916 32.7823C41.1916 33.9105 40.8342 34.857 40.1193 35.6217C39.4045 36.3865 38.5197 36.7688 37.465 36.7688C37.2072 36.7688 36.9494 36.7375 36.6916 36.6748C36.4338 36.6121 36.176 36.5181 35.9182 36.3927L33.7385 35.2644H17.6369L15.6682 36.3927C15.3635 36.5682 15.0412 36.6748 14.7014 36.7124C14.3615 36.75 14.0275 36.7688 13.6994 36.7688Z" fill="#402011"/>
</g>
</svg>
