<svg width="1843" height="1323" viewBox="0 0 1843 1323" fill="none" xmlns="http://www.w3.org/2000/svg">
<path d="M368.591 1323C317.91 1323 274.524 1310.16 238.433 1284.49C202.341 1258.81 184.296 1227.95 184.296 1191.89L184.296 488.382C127.471 464.345 82.5491 432.387 49.5294 392.508C16.5098 352.629 0 309.199 0 262.219C0 190.108 36.0912 128.378 108.274 77.0267C180.456 25.6756 267.229 0 368.591 0L1474.37 0C1575.73 0 1662.5 25.6756 1734.68 77.0267C1806.87 128.378 1842.96 190.108 1842.96 262.219C1842.96 309.199 1826.45 352.629 1793.43 392.508C1760.41 432.387 1715.49 464.345 1658.66 488.382L1658.66 1191.89C1658.66 1227.95 1640.62 1258.81 1604.52 1284.49C1568.43 1310.16 1525.05 1323 1474.37 1323L368.591 1323Z" fill="#1C1B1F"/>
</svg>
